<?xml version="1.0" standalone="no"?>
<!DOCTYPE svg PUBLIC "-//W3C//DTD SVG 20010904//EN"
 "http://www.w3.org/TR/2001/REC-SVG-20010904/DTD/svg10.dtd">
<svg version="1.0" xmlns="http://www.w3.org/2000/svg"
 width="700.000000pt" height="700.000000pt" viewBox="0 0 700.000000 700.000000"
 preserveAspectRatio="xMidYMid meet">
<metadata>
Created by potrace 1.14, written by Peter Selinger 2001-2017
</metadata>
<g transform="translate(0.000000,700.000000) scale(0.100000,-0.100000)"
fill="#000000" stroke="none">
<path d="M3278 6975 c-1 -1 -41 -6 -88 -9 -47 -3 -94 -8 -105 -10 -11 -2 -42
-7 -70 -10 -76 -10 -116 -16 -165 -26 -25 -6 -56 -12 -70 -14 -55 -9 -270 -67
-360 -96 -520 -172 -985 -457 -1371 -840 -287 -285 -488 -562 -668 -920 -123
-244 -244 -585 -285 -800 -2 -14 -9 -45 -14 -70 -6 -25 -13 -63 -16 -85 -4
-23 -8 -52 -11 -65 -2 -13 -7 -44 -10 -69 -3 -25 -7 -61 -10 -80 -18 -145 -27
-515 -14 -621 4 -30 10 -92 14 -136 3 -45 8 -94 10 -108 3 -14 7 -38 10 -53 2
-14 8 -47 12 -72 4 -25 8 -48 8 -51 2 -8 17 -83 21 -104 18 -102 96 -355 159
-516 42 -108 177 -390 226 -471 217 -361 478 -672 759 -906 58 -48 107 -90
110 -93 3 -3 31 -24 62 -47 361 -269 782 -471 1212 -582 66 -17 131 -33 145
-36 14 -3 37 -7 51 -10 42 -8 133 -24 177 -30 23 -3 57 -8 75 -10 197 -28 724
-27 863 0 11 2 40 7 65 10 25 3 55 7 66 9 12 2 37 7 55 10 75 13 99 18 231 51
131 33 346 100 411 129 18 7 61 26 97 41 321 136 644 335 907 561 97 83 312
299 378 379 28 33 52 62 55 65 43 41 233 313 309 444 61 104 163 306 192 379
11 29 27 66 34 82 31 68 111 309 140 425 31 126 61 272 70 345 3 22 8 57 11
78 17 109 28 288 28 452 0 121 -11 336 -19 387 -2 13 -11 73 -19 133 -9 61
-18 121 -21 135 -3 14 -10 47 -16 75 -5 27 -23 102 -40 165 -163 606 -472
1139 -918 1580 -93 92 -236 220 -306 273 -5 4 -28 21 -50 38 -38 30 -276 189
-325 217 -141 83 -352 186 -472 232 -29 11 -62 25 -73 30 -34 15 -235 78 -335
105 -156 41 -341 77 -465 90 -33 4 -78 9 -100 12 -48 5 -542 13 -547 8z"/>
</g>
</svg>
